<svg xmlns="http://www.w3.org/2000/svg" xmlns:xlink="http://www.w3.org/1999/xlink" width="156" zoomAndPan="magnify" viewBox="0 0 116.88 83.249999" height="111" preserveAspectRatio="xMidYMid meet" version="1.0"><defs><clipPath id="e2d8d49242"><path d="M 39 27.277344 L 78 27.277344 L 78 55.519531 L 39 55.519531 Z M 39 27.277344 " clip-rule="nonzero"/></clipPath></defs><g clip-path="url(#e2d8d49242)"><path fill="#545454" d="M 45.914062 41.015625 L 49.566406 40.425781 C 51.277344 40.425781 52.792969 41.015625 54.105469 42.199219 C 55.488281 43.320312 56.179688 45 56.179688 47.234375 C 56.179688 49.40625 55.457031 51.25 54.007812 52.765625 C 52.5625 54.277344 50.519531 55.035156 47.886719 55.035156 C 45.320312 55.035156 43.183594 54.046875 41.46875 52.074219 C 39.824219 50.097656 39.003906 47.566406 39.003906 44.472656 C 39.003906 41.3125 40.1875 38.1875 42.554688 35.09375 C 44.992188 32 48.445312 29.433594 52.921875 27.390625 L 53.613281 29.070312 C 47.425781 32.492188 44.332031 35.949219 44.332031 39.4375 C 44.332031 40.488281 44.859375 41.015625 45.914062 41.015625 Z M 67.632812 41.015625 L 71.285156 40.425781 C 72.996094 40.425781 74.511719 41.015625 75.828125 42.199219 C 77.207031 43.320312 77.898438 45 77.898438 47.234375 C 77.898438 49.40625 77.175781 51.25 75.726562 52.765625 C 74.28125 54.277344 72.238281 55.035156 69.605469 55.035156 C 67.039062 55.035156 64.902344 54.046875 63.191406 52.074219 C 61.542969 50.097656 60.722656 47.566406 60.722656 44.472656 C 60.722656 41.3125 61.90625 38.1875 64.277344 35.09375 C 66.710938 32 70.167969 29.433594 74.640625 27.390625 L 75.332031 29.070312 C 69.148438 32.492188 66.054688 35.949219 66.054688 39.4375 C 66.054688 40.488281 66.578125 41.015625 67.632812 41.015625 Z M 67.632812 41.015625 " fill-opacity="1" fill-rule="nonzero"/></g></svg>